<svg id="ae888a66-5b86-4140-a545-fd7e56e0a4c5" data-name="Calque 1" xmlns="http://www.w3.org/2000/svg" viewBox="0 0 171.05 171.05"><title>FAVICON</title><path d="M484.06,383.28H357a22,22,0,0,1-22-22V234.22a22,22,0,0,1,22-22H484.06a22,22,0,0,1,22,22V361.28a22,22,0,0,1-22,22" transform="translate(-335 -212.23)" style="fill:#482683"/><path d="M420.52,257.54a40.23,40.23,0,1,0,40.23,40.22,40.34,40.34,0,0,0-40.23-40.22m0,84.14A43.92,43.92,0,1,1,460.75,280v-46.2h3.68v63.94a43.93,43.93,0,0,1-43.91,43.92" transform="translate(-335 -212.23)" style="fill:#fff"/><path d="M420.52,257.54a40.23,40.23,0,1,0,40.23,40.22A40.34,40.34,0,0,0,420.52,257.54Zm0,84.14A43.92,43.92,0,1,1,460.75,280v-46.2h3.68v63.94A43.93,43.93,0,0,1,420.52,341.68Z" transform="translate(-335 -212.23)" style="fill:none;stroke:#fff;stroke-miterlimit:10;stroke-width:5.18514820637908px"/></svg>